<svg width="84" height="28" viewBox="0 0 84 28" fill="none" xmlns="http://www.w3.org/2000/svg">
<path d="M36.347 14.7185C36.347 18.605 33.2618 21.4689 29.4756 21.4689C25.6895 21.4689 22.6043 18.605 22.6043 14.7185C22.6043 10.8045 25.6895 7.96802 29.4756 7.96802C33.2618 7.96802 36.347 10.8045 36.347 14.7185ZM33.339 14.7185C33.339 12.2898 31.5509 10.628 29.4756 10.628C27.4003 10.628 25.6122 12.2898 25.6122 14.7185C25.6122 17.1228 27.4003 18.8089 29.4756 18.8089C31.5509 18.8089 33.339 17.1198 33.339 14.7185Z" fill="#EA4335"/>
<path d="M51.1704 14.7185C51.1704 18.605 48.0853 21.4689 44.2991 21.4689C40.5129 21.4689 37.4278 18.605 37.4278 14.7185C37.4278 10.8076 40.5129 7.96802 44.2991 7.96802C48.0853 7.96802 51.1704 10.8045 51.1704 14.7185ZM48.1625 14.7185C48.1625 12.2898 46.3744 10.628 44.2991 10.628C42.2238 10.628 40.4357 12.2898 40.4357 14.7185C40.4357 17.1228 42.2238 18.8089 44.2991 18.8089C46.3744 18.8089 48.1625 17.1198 48.1625 14.7185Z" fill="#FBBC05"/>
<path d="M65.3763 8.37584V20.495C65.3763 25.4802 62.3931 27.5163 58.8663 27.5163C55.5465 27.5163 53.5484 25.328 52.7949 23.5385L55.4137 22.4641C55.88 23.5628 57.0227 24.8593 58.8632 24.8593C61.1207 24.8593 62.5197 23.4867 62.5197 20.9028V19.9319H62.4147C61.7415 20.7506 60.4444 21.4658 58.8077 21.4658C55.3828 21.4658 52.2451 18.5258 52.2451 14.7428C52.2451 10.9324 55.3828 7.96802 58.8077 7.96802C60.4413 7.96802 61.7384 8.68323 62.4147 9.47758H62.5197V8.37889H65.3763V8.37584ZM62.7328 14.7428C62.7328 12.3658 61.1238 10.628 59.0763 10.628C57.001 10.628 55.2624 12.3658 55.2624 14.7428C55.2624 17.0954 57.001 18.8089 59.0763 18.8089C61.1238 18.8089 62.7328 17.0954 62.7328 14.7428Z" fill="#4285F4"/>
<path d="M70.086 1.27246V21.0551H67.1521V1.27246H70.086Z" fill="#34A853"/>
<path d="M81.5187 16.9403L83.8534 18.4742C83.0999 19.5729 81.284 21.466 78.1463 21.466C74.2552 21.466 71.3491 18.5016 71.3491 14.7155C71.3491 10.7012 74.2799 7.96509 77.8097 7.96509C81.3643 7.96509 83.1029 10.7529 83.6712 12.2594L83.9831 13.0264L74.8265 16.7638C75.5275 18.1181 76.6177 18.809 78.1463 18.809C79.6781 18.809 80.7404 18.0664 81.5187 16.9403ZM74.3324 14.5116L80.4532 12.0068C80.1166 11.1638 79.1037 10.5764 77.9116 10.5764C76.3829 10.5764 74.2552 11.9064 74.3324 14.5116Z" fill="#EA4335"/>
<path d="M11.4991 12.9624V10.0985H21.2919C21.3876 10.5977 21.4371 11.1881 21.4371 11.8272C21.4371 13.9759 20.841 16.6329 18.9201 18.5259C17.0518 20.4433 14.6646 21.4659 11.5022 21.4659C5.64074 21.4659 0.711914 16.7607 0.711914 10.9842C0.711914 5.20766 5.64074 0.502441 11.5022 0.502441C14.7449 0.502441 17.0549 1.75635 18.7904 3.3907L16.7399 5.41157C15.4953 4.26114 13.8091 3.36635 11.4991 3.36635C7.21883 3.36635 3.87118 6.76592 3.87118 10.9842C3.87118 15.2024 7.21883 18.602 11.4991 18.602C14.2754 18.602 15.8566 17.5033 16.8696 16.505C17.691 15.6955 18.2315 14.539 18.4446 12.9594L11.4991 12.9624Z" fill="#4285F4"/>
</svg>
