<svg width="123" height="27" viewBox="0 0 123 27" fill="none" xmlns="http://www.w3.org/2000/svg">
<path d="M44.0467 14.9846L43.3195 17.0404H43.2589C43.1377 16.5768 42.9155 15.8714 42.552 15.0249L38.6536 5.24969H34.8361V20.8295H37.3609V11.2156C37.3609 10.6109 37.3609 9.92566 37.3407 9.07915C37.3205 8.6559 37.2801 8.33342 37.2599 8.09155H37.3205C37.4417 8.69621 37.5831 9.13962 37.6841 9.42179L42.3702 20.7892H44.1476L48.7933 9.32101C48.8943 9.059 48.9953 8.53497 49.0963 8.09155H49.1569C49.0963 9.24039 49.0559 10.2683 49.0357 10.8931V20.7691H51.7221V5.20938H48.046L44.0467 14.9846ZM54.2672 9.60318H56.893V20.7691H54.2672V9.60318ZM55.6003 4.8869C55.1559 4.8869 54.7923 5.04814 54.4894 5.33031C54.1864 5.61248 54.0248 5.97528 54.0248 6.41869C54.0248 6.84194 54.1864 7.20473 54.4894 7.4869C54.7923 7.76907 55.1559 7.91016 55.6003 7.91016C56.0447 7.91016 56.4284 7.74892 56.7112 7.4869C57.0142 7.20473 57.1758 6.84194 57.1758 6.41869C57.1758 5.99543 57.0142 5.63264 56.7112 5.33031C56.4486 5.04814 56.0649 4.8869 55.6003 4.8869ZM66.2046 9.50241C65.7198 9.40163 65.2149 9.34117 64.7301 9.34117C63.5384 9.34117 62.4476 9.60318 61.5387 10.1272C60.6298 10.6512 59.9026 11.3768 59.438 12.2838C58.9533 13.2109 58.7109 14.2792 58.7109 15.5086C58.7109 16.5768 58.9533 17.5241 59.4178 18.3908C59.8824 19.2373 60.5288 19.9226 61.3973 20.3861C62.2255 20.8497 63.195 21.0916 64.2857 21.0916C65.538 21.0916 66.6086 20.8295 67.4569 20.3458L67.4771 20.3257V17.9071L67.3761 17.9877C66.9923 18.2698 66.548 18.5117 66.1036 18.6528C65.639 18.814 65.2149 18.8947 64.8513 18.8947C63.801 18.8947 62.9728 18.5923 62.387 17.9272C61.7811 17.2823 61.4781 16.3954 61.4781 15.2869C61.4781 14.1381 61.7811 13.2311 62.4072 12.566C63.0334 11.9009 63.8615 11.5582 64.8715 11.5582C65.7198 11.5582 66.5884 11.8404 67.3761 12.4047L67.4771 12.4854V9.92566L67.4569 9.90551C67.1135 9.76442 66.7298 9.60318 66.2046 9.50241ZM74.8698 9.42179C74.2235 9.42179 73.6175 9.62334 73.0923 10.0466C72.648 10.4094 72.345 10.9334 72.0824 11.5582H72.0622V9.60318H69.4364V20.7691H72.0622V15.0652C72.0622 14.0978 72.2642 13.2916 72.7086 12.7071C73.1529 12.1024 73.7185 11.8001 74.4053 11.8001C74.6476 11.8001 74.89 11.8605 75.193 11.9009C75.4758 11.9815 75.6778 12.0621 75.8192 12.1629L75.9202 12.2435V9.62334L75.8596 9.60318C75.6778 9.48225 75.3142 9.42179 74.8698 9.42179ZM82.0202 9.36132C80.1821 9.36132 78.7076 9.90551 77.6774 10.9737C76.6271 12.0419 76.1221 13.5133 76.1221 15.3675C76.1221 17.1009 76.6473 18.5117 77.6572 19.5396C78.6672 20.5474 80.0407 21.0714 81.7576 21.0714C83.5553 21.0714 84.9894 20.5272 86.0195 19.4388C87.0698 18.3505 87.5748 16.8993 87.5748 15.1055C87.5748 13.3319 87.09 11.921 86.1003 10.8931C85.151 9.8652 83.7572 9.36132 82.0202 9.36132ZM84.1208 17.9474C83.6361 18.5722 82.8685 18.8745 81.9192 18.8745C80.9698 18.8745 80.2023 18.5722 79.6569 17.9071C79.1115 17.2823 78.849 16.3753 78.849 15.2264C78.849 14.0373 79.1317 13.1303 79.6569 12.4854C80.2023 11.8404 80.9496 11.5179 81.899 11.5179C82.8281 11.5179 83.5553 11.8202 84.0804 12.445C84.6056 13.0698 84.8884 13.9768 84.8884 15.166C84.848 16.3753 84.6258 17.3226 84.1208 17.9474ZM93.4324 14.2388C92.6043 13.8962 92.0791 13.6342 91.8367 13.4125C91.6347 13.2109 91.5337 12.9288 91.5337 12.566C91.5337 12.2636 91.6549 11.9613 91.9579 11.7598C92.2609 11.5582 92.6043 11.4574 93.1092 11.4574C93.5536 11.4574 94.0182 11.5381 94.4625 11.659C94.9069 11.7799 95.3109 11.9613 95.6341 12.2032L95.7351 12.2838V9.82489L95.6745 9.80473C95.3715 9.6838 94.9675 9.56287 94.4827 9.4621C93.998 9.38148 93.5536 9.34117 93.19 9.34117C91.9377 9.34117 90.9076 9.64349 90.0996 10.3086C89.2917 10.9334 88.9079 11.7799 88.9079 12.7675C88.9079 13.2916 88.9887 13.7551 89.1705 14.1381C89.3523 14.521 89.6149 14.8838 89.9784 15.1861C90.342 15.4683 90.8672 15.7908 91.5943 16.0931C92.2003 16.3551 92.6649 16.5567 92.9476 16.7179C93.2304 16.8792 93.4122 17.0605 93.5536 17.2016C93.6546 17.3629 93.7152 17.5644 93.7152 17.8264C93.7152 18.5722 93.1496 18.935 91.9983 18.935C91.5539 18.935 91.0894 18.8543 90.544 18.673C89.9986 18.4916 89.4937 18.2295 89.0695 17.9272L88.9685 17.8466V20.4063L89.0291 20.4264C89.4129 20.6078 89.8774 20.7288 90.443 20.8699C91.0086 20.9706 91.5135 21.0512 91.9579 21.0512C93.3112 21.0512 94.4221 20.7489 95.2099 20.0838C96.0178 19.4388 96.442 18.6125 96.442 17.5443C96.442 16.7985 96.24 16.1334 95.7957 15.6295C95.2099 15.1458 94.4827 14.6419 93.4324 14.2388ZM103.37 9.36132C101.532 9.36132 100.058 9.90551 99.0274 10.9737C97.9973 12.0419 97.4721 13.5133 97.4721 15.3675C97.4721 17.1009 97.9973 18.5117 99.0072 19.5396C100.017 20.5474 101.391 21.0714 103.108 21.0714C104.905 21.0714 106.339 20.5272 107.369 19.4388C108.42 18.3505 108.925 16.8993 108.925 15.1055C108.925 13.3319 108.44 11.921 107.45 10.8931C106.501 9.8652 105.107 9.36132 103.37 9.36132ZM105.451 17.9474C104.966 18.5722 104.198 18.8745 103.249 18.8745C102.279 18.8745 101.532 18.5722 100.987 17.9071C100.441 17.2823 100.179 16.3753 100.179 15.2264C100.179 14.0373 100.462 13.1303 100.987 12.4854C101.532 11.8404 102.279 11.5179 103.229 11.5179C104.138 11.5179 104.885 11.8202 105.41 12.445C105.935 13.0698 106.218 13.9768 106.218 15.166C106.218 16.3753 105.956 17.3226 105.451 17.9474ZM122.963 11.7598V9.60318H120.317V6.29776L120.236 6.31791L117.731 7.06365L117.671 7.0838V9.60318H113.712V8.19233C113.712 7.54737 113.873 7.04349 114.156 6.72101C114.439 6.39853 114.863 6.23729 115.388 6.23729C115.752 6.23729 116.136 6.31791 116.56 6.49931L116.661 6.55977V4.28225L116.6 4.2621C116.237 4.14117 115.752 4.06055 115.126 4.06055C114.338 4.06055 113.651 4.24194 113.025 4.54427C112.399 4.8869 111.934 5.35047 111.591 5.97528C111.248 6.57993 111.066 7.2652 111.066 8.05124V9.60318H109.228V11.7396H111.066V20.7691H113.712V11.7598H117.671V17.504C117.671 19.8621 118.782 21.0512 121.004 21.0512C121.367 21.0512 121.751 20.9908 122.115 20.9303C122.498 20.8497 122.781 20.7489 122.943 20.6683L122.963 20.6481V18.4916L122.862 18.5722C122.7 18.673 122.559 18.7536 122.317 18.814C122.115 18.8745 121.933 18.8947 121.791 18.8947C121.266 18.8947 120.903 18.7737 120.64 18.4714C120.398 18.1892 120.276 17.7257 120.276 17.0404V11.7598H122.963Z" fill="#737373"/>
<path d="M0.983093 0.00939941H13.3649V12.3644H0.983093V0.00939941Z" fill="#F25022"/>
<path d="M14.6575 0.00939941H27.0393V12.3644H14.6575V0.00939941Z" fill="#7FBA00"/>
<path d="M0.983093 13.6544H13.3649V26.0095H0.983093V13.6544Z" fill="#00A4EF"/>
<path d="M14.6575 13.6544H27.0393V26.0095H14.6575V13.6544Z" fill="#FFB900"/>
</svg>
