<svg width="10" height="9" viewBox="0 0 10 9" fill="none" xmlns="http://www.w3.org/2000/svg">
<path d="M4.4294 0.756186C4.6094 0.203586 5.3912 0.203586 5.5706 0.756186L6.2126 2.73139C6.25182 2.85168 6.32807 2.95649 6.43044 3.03085C6.53281 3.1052 6.65607 3.14529 6.7826 3.14539H8.8598C9.4412 3.14539 9.68239 3.88939 9.21259 4.23139L7.5326 5.45179C7.43001 5.52621 7.35363 5.63119 7.3144 5.7517C7.27516 5.8722 7.27509 6.00204 7.3142 6.12259L7.9562 8.09779C8.1362 8.65039 7.5032 9.11059 7.0322 8.76859L5.3522 7.54819C5.24972 7.47379 5.12633 7.43372 4.9997 7.43372C4.87306 7.43372 4.74967 7.47379 4.6472 7.54819L2.9672 8.76859C2.4968 9.11059 1.8644 8.65039 2.0438 8.09779L2.6858 6.12259C2.7249 6.00204 2.72483 5.8722 2.6856 5.7517C2.64636 5.63119 2.56998 5.52621 2.4674 5.45179L0.787997 4.23199C0.318197 3.88999 0.559997 3.14599 1.1408 3.14599H3.2174C3.34402 3.14602 3.46742 3.10599 3.56991 3.03163C3.6724 2.95726 3.74874 2.85238 3.788 2.73199L4.43 0.756786L4.4294 0.756186Z" fill="white"/>
</svg>
