<svg width="90" height="29" viewBox="0 0 90 29" fill="none" xmlns="http://www.w3.org/2000/svg">
<path d="M25.8183 19.8638C25.6771 19.5225 25.5447 19.1638 25.4036 18.8575L24.7506 17.3963L24.7242 17.37C22.783 13.17 20.7094 8.9 18.5124 4.7L18.4242 4.525C18.2036 4.11375 17.983 3.65875 17.7536 3.23875C17.4712 2.74 17.1977 2.20625 16.7477 1.69875C16.309 1.16774 15.757 0.739915 15.1314 0.446148C14.5058 0.152382 13.8222 0 13.13 0C12.4378 0 11.7543 0.152382 11.1287 0.446148C10.5031 0.739915 9.95103 1.16774 9.51239 1.69875C9.09769 2.20625 8.78886 2.74 8.50651 3.23875C8.28592 3.69375 8.06533 4.14 7.83592 4.55125L7.74769 4.72625C5.58592 8.92625 3.4771 13.1963 1.53592 17.3963L1.48298 17.4487C1.28886 17.9038 1.05945 18.3762 0.838863 18.8838C0.697686 19.19 0.55651 19.5225 0.415333 19.89C0.0341855 20.8523 -0.087527 21.8965 0.062191 22.9197C0.211909 23.9428 0.62789 24.9097 1.26914 25.7249C1.91038 26.5401 2.75476 27.1755 3.71906 27.5685C4.68336 27.9616 5.73429 28.0986 6.76827 27.9663C7.75957 27.8368 8.7141 27.5094 9.57416 27.0037C10.7212 26.365 11.8242 25.4375 13.0595 24.0988C14.2947 25.4375 15.4242 26.365 16.5447 27.0125C17.6224 27.6397 18.8427 27.9859 20.0918 28.0187C21.5383 28.0247 22.9381 27.5115 24.0328 26.5739C25.1275 25.6363 25.8432 24.3375 26.0477 22.9175C26.284 21.8971 26.2041 20.8296 25.8183 19.855V19.8638ZM13.1477 21.3162C11.63 19.3913 10.6418 17.6238 10.3065 16.11C10.1676 15.5491 10.1376 14.967 10.2183 14.395C10.28 13.9488 10.4477 13.555 10.6771 13.2225C11.2065 12.4613 12.133 11.9888 13.1477 11.9888C13.6296 11.9742 14.1076 12.0784 14.5388 12.2922C14.97 12.5061 15.3409 12.8227 15.6183 13.2138C15.8477 13.5638 16.0153 13.9488 16.0683 14.395C16.1565 14.9025 16.1212 15.4887 15.98 16.11C15.6447 17.5975 14.6565 19.3825 13.1477 21.3162ZM24.3889 22.6112C24.2886 23.3322 23.9996 24.0145 23.5507 24.5902C23.1017 25.1659 22.5085 25.6149 21.83 25.8925C21.1595 26.1725 20.4183 26.2512 19.6947 26.1725C18.9889 26.085 18.283 25.8575 17.5595 25.4375C16.3581 24.7012 15.2779 23.7864 14.3565 22.725C16.2094 20.45 17.33 18.3763 17.7536 16.53C17.9565 15.655 17.983 14.8675 17.8947 14.1412C17.7846 13.4529 17.5257 12.7962 17.1359 12.2163C16.6909 11.5874 16.0968 11.0765 15.406 10.7286C14.7152 10.3808 13.9488 10.2065 13.1742 10.2213C11.5418 10.2213 10.0859 10.9738 9.20357 12.2075C8.80637 12.786 8.54966 13.4479 8.45357 14.1412C8.33886 14.8763 8.36533 15.69 8.59474 16.53C9.01827 18.3763 10.1653 20.4762 11.9918 22.7425C11.086 23.8241 10.0033 24.747 8.78886 25.4725C8.05651 25.8925 7.35945 26.1112 6.65357 26.1987C5.55582 26.3382 4.44693 26.0423 3.56795 25.3755C2.68896 24.7086 2.11091 23.7247 1.95945 22.6375C1.87122 21.9375 1.93298 21.2375 2.21533 20.45C2.30357 20.17 2.43592 19.89 2.5771 19.5575C2.77122 19.1025 3.00063 18.63 3.22122 18.1575L3.25651 18.0963C5.16239 13.9225 7.24474 9.66125 9.40651 5.4875L9.49474 5.3125C9.71533 4.8925 9.93592 4.44625 10.1653 4.02625C10.3947 3.58 10.6418 3.15125 10.9594 2.80125C11.2344 2.47577 11.578 2.21401 11.9659 2.03441C12.3539 1.85482 12.7769 1.76174 13.205 1.76174C13.6332 1.76174 14.0562 1.85482 14.4441 2.03441C14.8321 2.21401 15.1757 2.47577 15.4506 2.80125C15.7595 3.15125 16.0153 3.58 16.2447 4.02625C16.4653 4.44625 16.6859 4.90125 16.9153 5.3125L17.0036 5.4875C19.1565 9.66125 21.2389 13.9225 23.18 18.0963L23.2065 18.1225C23.4359 18.5775 23.63 19.085 23.8506 19.5225C23.9918 19.8638 24.133 20.135 24.2212 20.4237C24.3889 21.2113 24.4771 21.9113 24.3889 22.6112ZM36.6712 21.1238C36.0063 21.1334 35.3478 20.9945 34.7444 20.7173C34.1411 20.4401 33.6084 20.0317 33.1859 19.5225C32.2366 18.4375 31.7327 17.0384 31.7742 15.6025C31.7596 14.1353 32.2797 12.7122 33.2389 11.595C33.6825 11.0793 34.2348 10.6663 34.8568 10.3851C35.4787 10.1039 36.1553 9.96138 36.8389 9.9675C37.482 9.95004 38.1191 10.0951 38.6902 10.389C39.2613 10.6828 39.7477 11.1159 40.1036 11.6475L40.1918 10.2738H42.7683V20.8438H40.183L40.0947 19.3038C39.7278 19.8713 39.2207 20.3365 38.6215 20.655C38.0223 20.9735 37.351 21.1349 36.6712 21.1238ZM37.3418 18.6038C37.8536 18.6038 38.3036 18.4638 38.7271 18.21C39.1153 17.93 39.433 17.5625 39.68 17.1163C39.9006 16.67 40.0153 16.1362 40.0153 15.5413C40.0497 15.0245 39.9483 14.5077 39.7209 14.0414C39.4936 13.5752 39.1481 13.1754 38.7183 12.8813C38.3053 12.6261 37.8284 12.4908 37.3418 12.4908C36.8552 12.4908 36.3783 12.6261 35.9653 12.8813C35.5771 13.1613 35.2594 13.5288 35.0124 13.975C34.7791 14.4671 34.6643 15.0063 34.6771 15.55C34.6427 16.0668 34.7441 16.5836 34.9715 17.0498C35.1988 17.5161 35.5443 17.9158 35.9742 18.21C36.3889 18.4638 36.8389 18.6038 37.3418 18.6038ZM47.18 7.42125C47.18 7.7275 47.1271 8.0075 46.9859 8.235C46.8447 8.45375 46.6506 8.655 46.3947 8.795C46.1389 8.935 45.8653 8.9875 45.583 8.9875C45.3006 8.9875 45.0183 8.935 44.7624 8.795C44.5204 8.6614 44.3169 8.46862 44.1712 8.235C44.0346 7.98574 43.9675 7.70481 43.9771 7.42125C43.9771 7.10625 44.0389 6.82625 44.1712 6.6075C44.3124 6.345 44.5153 6.1875 44.7624 6.0475C45.0183 5.9075 45.2918 5.84625 45.583 5.84625C45.8638 5.83983 46.1416 5.9058 46.389 6.0377C46.6365 6.16959 46.8452 6.36291 46.9947 6.59875C47.1231 6.85385 47.1868 7.13621 47.18 7.42125ZM44.18 20.8088V10.2563H46.9859V20.8263H44.1712L44.18 20.8088ZM54.4859 13.0212V13.0562C54.3536 12.995 54.1771 12.9688 54.0447 12.9425C53.8683 12.9075 53.7271 12.9075 53.5594 12.9075C52.7742 12.9075 52.183 13.135 51.7947 13.6075C51.3712 14.0887 51.1771 14.7625 51.1771 15.6288V20.8175H48.3624V10.2475H50.9477L51.0359 11.8488C51.3183 11.2888 51.6536 10.8688 52.13 10.5538C52.604 10.2477 53.1619 10.0948 53.7271 10.1163C53.93 10.1163 54.1241 10.1338 54.2918 10.1688C54.38 10.195 54.433 10.195 54.4859 10.2213V13.0212ZM55.6153 20.8088V5.91625H58.4212V11.6038C58.8183 11.0963 59.2683 10.7025 59.833 10.3962C60.727 9.96158 61.7426 9.83828 62.7159 10.0462C63.6892 10.2542 64.5635 10.7813 65.1977 11.5425C66.1491 12.6298 66.6531 14.0323 66.6095 15.4713C66.624 16.9384 66.1039 18.3615 65.1447 19.4788C64.7011 19.9945 64.1488 20.4074 63.5269 20.6886C62.9049 20.9698 62.2283 21.1124 61.5447 21.1063C60.9016 21.1237 60.2645 20.9787 59.6934 20.6848C59.1223 20.3909 58.6359 19.9578 58.28 19.4263L58.1918 20.8L55.6153 20.8263V20.8088ZM61.0418 18.6038C61.5447 18.6038 61.9947 18.4638 62.4183 18.21C62.8065 17.93 63.1242 17.5625 63.3712 17.1163C63.6006 16.67 63.7065 16.1362 63.7065 15.5413C63.7065 14.955 63.6006 14.4213 63.3712 13.975C63.1395 13.5447 62.814 13.1711 62.4183 12.8813C62.0053 12.6261 61.5284 12.4908 61.0418 12.4908C60.5552 12.4908 60.0783 12.6261 59.6653 12.8813C59.2683 13.1613 58.9595 13.5288 58.7036 13.975C58.4702 14.4671 58.3554 15.0063 58.3683 15.55C58.3339 16.0668 58.4353 16.5836 58.6627 17.0498C58.89 17.5161 59.2355 17.9158 59.6653 18.21C60.08 18.4638 60.53 18.6038 61.0418 18.6038ZM67.6683 20.8175V10.2475H70.2536L70.3418 11.6213C70.6667 11.0947 71.1275 10.6637 71.6767 10.373C72.2258 10.0822 72.8433 9.94223 73.4653 9.9675C74.1766 9.95532 74.8757 10.1514 75.4752 10.5311C76.0747 10.9108 76.548 11.4574 76.8359 12.1025C77.1447 12.7675 77.3124 13.59 77.3124 14.5087V20.8438H74.4977V14.8763C74.4977 14.1412 74.33 13.5638 73.9947 13.135C73.6594 12.715 73.2006 12.4875 72.6183 12.4875C72.1947 12.4875 71.8242 12.575 71.4977 12.7675C71.1889 12.9688 70.933 13.2225 70.7389 13.5813C70.5426 13.9439 70.4453 14.3511 70.4565 14.7625V20.8175H67.6683ZM78.7153 20.8175V5.9075H81.53V11.595C81.9113 11.0847 82.4072 10.6695 82.9785 10.3824C83.5499 10.0954 84.1808 9.9443 84.8212 9.94125C85.4861 9.9316 86.1446 10.0705 86.748 10.3477C87.3514 10.6249 87.884 11.0333 88.3065 11.5425C89.2512 12.6297 89.7516 14.028 89.7094 15.4625C89.7248 16.9298 89.2046 18.3532 88.2447 19.47C87.8011 19.9857 87.2488 20.3987 86.6268 20.6799C86.0049 20.9611 85.3283 21.1036 84.6447 21.0975C84.0016 21.115 83.3645 20.9699 82.7934 20.676C82.2223 20.3822 81.7359 19.9491 81.38 19.4175L81.3006 20.7913L78.7153 20.8175ZM84.1683 18.6038C84.68 18.6038 85.13 18.4638 85.5447 18.21C85.9418 17.93 86.2506 17.5625 86.5065 17.1163C86.7271 16.67 86.8418 16.1362 86.8418 15.5413C86.8762 15.0245 86.7748 14.5077 86.5474 14.0414C86.3201 13.5752 85.9746 13.1754 85.5447 12.8813C85.1317 12.6261 84.6549 12.4908 84.1683 12.4908C83.6817 12.4908 83.2048 12.6261 82.7918 12.8813C82.4036 13.1613 82.0859 13.5288 81.8389 13.975C81.5926 14.4627 81.4771 15.0052 81.5036 15.55C81.4692 16.0668 81.5706 16.5836 81.798 17.0498C82.0253 17.5161 82.3708 17.9158 82.8006 18.21C83.2153 18.4638 83.6389 18.6038 84.1683 18.6038Z" fill="#FF385C"/>
</svg>
