<svg width="81" height="26" viewBox="0 0 81 26" fill="none" xmlns="http://www.w3.org/2000/svg">
<path d="M60.4539 24.2279L67.1256 16.8386L60.4539 9.44836H67.4932L70.7976 13.0381L73.9795 9.44836H80.7733L74.1333 16.8081L80.8644 24.2279H73.7962L70.5218 20.6087L67.2783 24.2279H60.4539Z" fill="#FF6600"/>
<path d="M60.4539 6.13531H52.8977V9.44834H60.4539V14.4414H52.8977V19.0243H60.4539V24.2279H47.344V0.946167H60.4539V6.13531Z" fill="#FF6600"/>
<path d="M41.8137 0.946167V10.4742H41.7528C40.5285 9.08697 38.9987 8.60491 37.2238 8.60491C33.5879 8.60491 30.8492 11.0413 29.8878 14.2624C28.7914 10.7131 25.9639 8.53839 21.7712 8.53839C18.3664 8.53839 15.6777 10.0449 14.2745 12.4998V9.44868H7.23663V6.136H14.917V0.946167H0.962891V24.2282H7.23663V14.4414H13.4898C13.3034 15.1603 13.2039 15.9301 13.2039 16.7423C13.2039 21.5989 16.9678 25.0065 21.7712 25.0065C25.8105 25.0065 28.4725 23.1373 29.8805 19.7293H24.5041C23.7768 20.753 23.2252 21.0571 21.7712 21.0571C20.0853 21.0571 18.6318 19.6072 18.6318 17.8885H29.5792C30.054 21.7459 33.1024 25.0727 37.2857 25.0727C39.0902 25.0727 40.7424 24.1977 41.7528 22.7203H41.8137V24.2275H47.3441V0.946167H41.8137ZM18.8064 14.511C19.1552 13.0322 20.3187 12.0657 21.7712 12.0657C23.3702 12.0657 24.4745 13.0024 24.765 14.511C24.8874 14.511 18.8064 14.511 18.8064 14.511ZM38.4575 20.6831C36.4189 20.6831 35.1521 18.8107 35.1521 16.8558C35.1521 14.7661 36.254 12.7566 38.4575 12.7566C40.7424 12.7566 41.6526 14.7661 41.6526 16.8558C41.6523 18.8375 40.6878 20.6831 38.4575 20.6831Z" fill="#652C8F"/>
</svg>
