<svg width="19" height="25" viewBox="0 0 19 25" fill="none" xmlns="http://www.w3.org/2000/svg">
<path d="M13.6477 7.42045H18.3636C18.2955 3.27273 14.8864 0.40909 9.70455 0.40909C4.60227 0.40909 0.863636 3.22727 0.886364 7.45454C0.875 10.8864 3.29545 12.8523 7.22727 13.7955L9.76136 14.4318C12.2955 15.0455 13.7045 15.7727 13.7159 17.3409C13.7045 19.0455 12.0909 20.2045 9.59091 20.2045C7.03409 20.2045 5.19318 19.0227 5.03409 16.6932H0.272727C0.397727 21.7273 4 24.3295 9.64773 24.3295C15.3295 24.3295 18.6705 21.6136 18.6818 17.3523C18.6705 13.4773 15.75 11.4205 11.7045 10.5114L9.61364 10.0114C7.59091 9.54545 5.89773 8.79545 5.93182 7.125C5.93182 5.625 7.26136 4.52273 9.67045 4.52273C12.0227 4.52273 13.4659 5.59091 13.6477 7.42045Z" fill="white"/>
</svg>
