<?xml version="1.0" encoding="utf-8"?><!-- Uploaded to: SVG Repo, www.svgrepo.com, Generator: SVG Repo Mixer Tools -->
<svg fill="#000000" width="800px" height="800px" viewBox="0 0 24 24" id="right-alt" data-name="Line Color" xmlns="http://www.w3.org/2000/svg" class="icon line-color"><path id="secondary" d="M12.13,15.13h-8a1,1,0,0,1-1-1v-4a1,1,0,0,1,1-1h8" style="fill: none; stroke: rgb(44, 169, 188); stroke-linecap: round; stroke-linejoin: round; stroke-width: 2;"></path><path id="primary" d="M12.13,9.13,10.66,6.92a1,1,0,0,1,.23-1.35l2.46-1.85a1,1,0,0,1,1.39.19l5.92,7.61a1,1,0,0,1,0,1.23l-5.92,7.61a1,1,0,0,1-1.39.18L10.89,18.7a1,1,0,0,1-.23-1.35l1.47-2.22" style="fill: none; stroke: rgb(0, 0, 0); stroke-linecap: round; stroke-linejoin: round; stroke-width: 2;"></path></svg>