<svg width="112" height="27" viewBox="0 0 112 27" fill="none" xmlns="http://www.w3.org/2000/svg">
<path d="M40.4648 9.2573V10.7308H40.5099C41.0401 9.94188 41.9203 9.0128 43.8713 9.0128C45.3891 9.0128 46.5535 9.7854 47.0525 10.9524H47.0975C47.5238 10.3624 48.0124 9.9158 48.5599 9.59959C49.208 9.2247 49.9288 9.00954 50.8367 9.00954C52.8917 9.00954 54.711 10.3461 54.711 13.7168V20.1095H51.5783V14.1635C51.5783 12.4553 50.9615 11.4675 49.6793 11.4675C48.7401 11.4675 48.0575 12.0608 47.7976 12.791C47.7075 13.042 47.6659 13.3843 47.6659 13.6712V20.1128H44.5332V13.9222C44.5332 12.4716 43.9406 11.4643 42.6757 11.4643C41.6638 11.4643 41.0297 12.214 40.7698 12.8562C40.6589 13.1301 40.6242 13.4463 40.6242 13.7429V20.1095H37.488V9.2573H40.4648ZM70.8805 9.2573V11.3045H70.9671C71.5424 9.73976 72.9077 9.0128 74.1068 9.0128C74.4082 9.0128 74.5746 9.03562 74.8172 9.08126V11.9239C74.5295 11.8848 74.2627 11.8457 73.8884 11.8457C72.53 11.8457 71.584 12.5889 71.3448 13.7527C71.2929 13.9939 71.2755 14.2547 71.2755 14.5546V20.1128H68.0597V9.2573H70.8805ZM79.1835 5.66162V9.078H81.9004V11.8424H79.1835V15.9205C79.1835 17.2408 79.5405 17.8797 80.6009 17.8797C81.0999 17.8797 81.4672 17.8211 81.786 17.7461L81.8276 20.0378C81.4014 20.1878 80.4935 20.3508 79.5717 20.3508C78.487 20.3508 77.5825 19.9954 77.0315 19.4445C76.4008 18.8153 76.1097 17.7852 76.1097 16.3182V5.66162H79.1835ZM35.3048 20.1095H32.186V5.66162H35.3048V20.1095ZM26.9879 16.2335C26.9879 16.4323 26.9706 16.641 26.9117 16.8203C26.6691 17.5733 25.8409 18.209 24.8082 18.209C23.9453 18.209 23.2592 17.7493 23.2592 16.7746C23.2592 15.2849 25.0057 14.8709 26.9914 14.8806V16.2335H26.9879ZM30.1033 13.6353C30.1033 11.1741 28.9874 9.0128 25.2136 9.0128C23.2765 9.0128 21.7379 9.52461 20.8992 9.981L21.5126 11.9565C22.2785 11.5001 23.5017 11.1252 24.6592 11.1252C26.5755 11.122 26.8874 12.1456 26.8874 12.8008V12.9573C22.7116 12.9508 20.0745 14.3101 20.0745 17.0811C20.0745 18.773 21.4156 20.3573 23.7513 20.3573C25.1894 20.3573 26.3884 19.8194 27.1092 18.9555H27.1785C27.1785 18.9555 27.6567 20.83 30.2835 20.1128C30.1449 19.3304 30.0998 18.4991 30.0998 17.4983V13.6353H30.1033ZM4.40748 5.66162C4.72976 7.19052 5.64462 11.6305 5.64462 11.6305C6.02928 13.4561 6.38275 15.3696 6.64959 16.8822H6.6981C6.958 15.2751 7.36692 13.7527 7.80356 11.8685L9.34565 5.66162H12.7591L14.2007 12.0282C14.5784 13.7983 14.8799 15.1642 15.119 16.8105H15.164C15.4239 15.1479 15.7635 13.7266 16.1343 11.9076L17.5205 5.66162H20.7953L16.7373 20.1095C14.1521 20.6409 13.161 19.6629 12.8076 18.1112C12.4541 16.5562 11.761 13.5995 11.761 13.5995C11.4041 11.9793 11.1269 10.8384 10.9328 9.1758H10.8843C10.6071 10.8221 10.316 11.9761 9.88625 13.5962L8.18475 20.1128C5.54413 20.6083 4.62927 19.8748 4.12332 17.883C3.68668 16.1781 0.962891 5.66488 0.962891 5.66488H4.40748V5.66162ZM62.8616 16.2335C62.8616 16.4323 62.8443 16.641 62.7853 16.8203C62.5428 17.5733 61.7145 18.209 60.6819 18.209C59.819 18.209 59.1328 17.7493 59.1328 16.7746C59.1328 15.2849 60.8794 14.8709 62.865 14.8806V16.2335H62.8616ZM65.977 13.6353C65.977 11.1741 64.8611 9.0128 61.0873 9.0128C59.1502 9.0128 57.6115 9.52461 56.7729 9.981L57.3863 11.9565C58.1521 11.5001 59.3754 11.1252 60.5328 11.1252C62.4457 11.122 62.7611 12.1456 62.7611 12.8008V12.9573C58.5888 12.9508 55.9516 14.3101 55.9516 17.0811C55.9516 18.773 57.2962 20.3573 59.6284 20.3573C61.063 20.3573 62.2655 19.8194 62.9829 18.9555H63.0556C63.0556 18.9555 63.5339 20.83 66.1606 20.1128C66.022 19.3304 65.977 18.4991 65.977 17.4983V13.6353Z" fill="#041E42"/>
<path d="M94.5431 15.1335C94.8506 15.6611 94.8298 16.25 94.5017 16.519L88.8298 20.437C88.2391 20.774 87.3548 20.3655 86.854 19.5111C86.3496 18.6533 86.4395 17.6968 87.0301 17.3598L93.31 14.4799C93.7037 14.3302 94.2357 14.6059 94.5431 15.1335ZM102.008 15.1335C102.319 14.6059 102.847 14.3336 103.241 14.4765L109.524 17.3563C110.115 17.6933 110.201 18.6499 109.7 19.5077C109.196 20.3621 108.308 20.7672 107.721 20.4336L102.049 16.5156C101.725 16.25 101.7 15.6577 102.008 15.1335ZM98.2737 17.2576C98.892 17.2576 99.3998 17.5708 99.4689 17.9827L100.08 24.7839C100.08 25.4579 99.2824 26.0094 98.2772 26.0094C97.2754 26.0094 96.4741 25.4579 96.4741 24.7839L97.082 17.9827C97.1511 17.5708 97.6589 17.2576 98.2737 17.2576ZM102.049 9.50325L107.721 5.5818C108.308 5.2448 109.196 5.64988 109.7 6.5077C110.201 7.36551 110.115 8.32205 109.524 8.65905L103.241 11.5423C102.847 11.6852 102.315 11.4129 102.008 10.8853C101.7 10.3577 101.725 9.76876 102.049 9.50325ZM93.31 11.5423L87.0301 8.65905C86.4429 8.32205 86.3531 7.36551 86.854 6.5077C87.3548 5.64988 88.2426 5.2448 88.8298 5.5818L94.5017 9.50325C94.8298 9.76536 94.8506 10.3577 94.5431 10.8853C94.2357 11.4129 93.7037 11.6852 93.31 11.5423ZM97.082 8.03611L96.4741 1.23485C96.4741 0.560853 97.272 0.00939941 98.2772 0.00939941C99.2824 0.00939941 100.08 0.560853 100.08 1.23485L99.4689 8.03611C99.3998 8.44459 98.892 8.76117 98.2737 8.76117C97.6589 8.76117 97.1511 8.44459 97.082 8.03611ZM111.234 20.4098V20.2396H111.389C111.441 20.2396 111.476 20.2736 111.476 20.3247C111.476 20.3723 111.441 20.4098 111.389 20.4098H111.234ZM111.106 20.7195C111.106 20.7366 111.12 20.7536 111.141 20.7536H111.206C111.224 20.7536 111.241 20.7366 111.241 20.7195V20.5255H111.348L111.434 20.7297C111.441 20.7434 111.452 20.7536 111.465 20.7536H111.545C111.569 20.7536 111.586 20.7297 111.576 20.7059C111.545 20.6446 111.514 20.58 111.483 20.5153C111.535 20.4983 111.614 20.4472 111.614 20.3247C111.614 20.1953 111.507 20.1204 111.4 20.1204H111.141C111.124 20.1204 111.106 20.1374 111.106 20.1545V20.7195ZM110.826 20.437C110.826 20.1613 111.054 19.9366 111.334 19.9366C111.614 19.9366 111.842 20.1579 111.842 20.437C111.842 20.7127 111.617 20.9374 111.334 20.9374C111.051 20.9374 110.826 20.7127 110.826 20.437ZM110.706 20.437C110.706 20.7774 110.985 21.0565 111.334 21.0565C111.68 21.0565 111.963 20.7774 111.963 20.437C111.963 20.0966 111.68 19.8175 111.334 19.8175C110.985 19.8175 110.706 20.0966 110.706 20.437Z" fill="#FFC124"/>
</svg>
